<?xml version="1.0" encoding="UTF-8" standalone="no"?>
<svg width="36px" height="23px" viewBox="0 0 36 23" version="1.1" xmlns="http://www.w3.org/2000/svg" xmlns:xlink="http://www.w3.org/1999/xlink" xmlns:sketch="http://www.bohemiancoding.com/sketch/ns">
    <!-- Generator: Sketch 3.2.2 (9983) - http://www.bohemiancoding.com/sketch -->
    <title>cf_logo</title>
    <desc>Created with Sketch.</desc>
    <defs></defs>
    <g id="Page-1" stroke="none" stroke-width="1" fill="none" fill-rule="evenodd" sketch:type="MSPage">
        <g id="cf_logo" sketch:type="MSLayerGroup">
            <g id="Page-1" sketch:type="MSShapeGroup">
                <g id="Landscape---Retina">
                    <g id="cf_logo">
                        <rect id="Path" fill="#FFFFFF" x="0" y="0" width="36" height="23"></rect>
                        <path d="M22.1538462,14.375 L22.1538462,17.25 L19.3846154,17.25 L19.3846154,5.75 L20.7692308,5.75 L30.4615385,5.75 L30.4615385,8.625 L22.1538462,8.625 L22.1538462,11.5 L30.4615385,11.5 L30.4615385,14.375 L22.1538462,14.375 L22.1538462,14.375 Z M2.76923077,2.875 L2.76923077,20.125 L18,20.125 L33.2307692,20.125 L33.2307692,2.875 L18,2.875 L2.76923077,2.875 Z M6.92307692,5.75 L16.6153846,5.75 L16.6153846,8.625 L8.30769231,8.625 L8.30769231,14.375 L16.6153846,14.375 L16.6153846,17.25 L5.53846154,17.25 L5.53846154,15.8125 L5.53846154,5.75 L6.92307692,5.75 L6.92307692,5.75 Z" id="Rectangle-8" fill="#000000"></path>
                    </g>
                </g>
            </g>
        </g>
    </g>
</svg>