<?xml version="1.0" encoding="UTF-8" standalone="no"?>
<svg width="367px" height="423px" viewBox="0 0 367 423" version="1.1" xmlns="http://www.w3.org/2000/svg" xmlns:xlink="http://www.w3.org/1999/xlink" xmlns:sketch="http://www.bohemiancoding.com/sketch/ns">
    <!-- Generator: Sketch 3.2.2 (9983) - http://www.bohemiancoding.com/sketch -->
    <title>Imported Layers</title>
    <desc>Created with Sketch.</desc>
    <defs></defs>
    <g id="Page-1" stroke="none" stroke-width="1" fill="none" fill-rule="evenodd" sketch:type="MSPage">
        <g id="Imported-Layers" sketch:type="MSLayerGroup">
            <path d="M0.742,316.639 L0.742,105.565 L183.538,0.027 L366.333,105.565 L366.333,316.639 L183.538,422.176 L0.742,316.639" id="Fill-1" fill="#343532" sketch:type="MSShapeGroup"></path>
            <path d="M10.742,310.865 L10.742,111.338 L183.538,11.574 L356.333,111.338 L356.333,310.865 L183.538,410.629 L10.742,310.865" id="Fill-2" fill="#83BC4B" sketch:type="MSShapeGroup"></path>
            <path d="M336.333,299.318 L183.537,387.535 L30.742,299.318 L30.742,122.885 L183.537,34.668 L336.333,122.885 L336.333,299.318" id="Fill-3" fill="#343532" sketch:type="MSShapeGroup"></path>
            <path d="M272.645,190.55 L272.786,188.034 L264.118,188.034 L264.118,160.684 L262.242,157.401 C215.959,76.406 201.986,76.406 195.271,76.406 C188.825,76.406 180.497,80.313 178.237,91.315 C176.108,100.485 143.862,129.04 109.236,152.416 L102.959,156.651 L102.959,188.034 L94.235,188.034 L94.385,190.55 L88.846,190.55 L88.846,236.087 L97.061,236.087 L98.423,259.507 L102.959,259.507 L102.959,291.054 L148.096,317.106 L148.096,325.109 L183.542,345.571 L218.992,325.109 L218.992,317.11 L264.123,291.054 L264.123,259.507 L268.655,259.507 L270.019,236.087 L278.23,236.087 L278.23,190.55 L272.645,190.55" id="Fill-4" fill="#FFFFFF" sketch:type="MSShapeGroup"></path>
            <path d="M257.58,204.796 L257.722,202.28 L184.975,202.28 L185.598,205.626 L181.486,205.626 L182.111,202.28 L109.364,202.28 L109.513,204.796 L103.091,204.796 L103.091,221.842 L110.499,221.842 L111.864,245.261 L174.115,245.261 L179.427,216.682 L187.655,216.682 L192.964,245.261 L255.216,245.261 L256.579,221.842 L263.987,221.842 L263.987,204.796 L257.58,204.796 L257.58,204.796 Z M165.072,234.375 L122.132,234.375 L120.899,213.187 L169.013,213.187 L165.072,234.375 L165.072,234.375 Z M244.951,234.375 L202.022,234.375 L198.074,213.187 L246.186,213.187 L244.951,234.375 L244.951,234.375 Z" id="Fill-5" fill="#343532" sketch:type="MSShapeGroup"></path>
            <path d="M237.446,275.654 L204.746,294.533 L204.746,292.396 L183.542,280.159 L162.341,292.396 L162.341,294.533 L129.643,275.654 L129.643,252.254 L117.203,252.254 L117.203,282.827 L162.341,308.879 L162.341,316.886 L183.542,329.124 L204.746,316.886 L204.746,308.883 L249.878,282.827 L249.878,252.254 L237.446,252.254 L237.446,275.654" id="Fill-6" fill="#343532" sketch:type="MSShapeGroup"></path>
            <path d="M205.009,272.803 C204.296,270.206 203.586,267.603 202.872,265.003 C190.222,268.466 176.871,268.466 164.211,265.003 C163.498,267.603 162.789,270.206 162.078,272.803 C176.128,276.652 190.957,276.652 205.009,272.803" id="Fill-7" fill="#343532" sketch:type="MSShapeGroup"></path>
            <path d="M129.643,171.136 L183.551,140.008 L237.455,171.136 L237.455,194.528 L249.874,194.528 L249.874,164.466 C249.874,164.466 196.82,71.634 192.191,94.183 C187.575,116.743 117.203,164.226 117.203,164.226 L117.203,194.52 L129.626,194.52 L129.643,171.136" id="Fill-8" fill="#343532" sketch:type="MSShapeGroup"></path>
            <path d="M0.742,316.639 L0.742,105.565 L183.538,0.027 L366.333,105.565 L366.333,316.639 L183.538,422.176 L0.742,316.639" id="Fill-9" fill="#000000" sketch:type="MSShapeGroup"></path>
            <path d="M10.742,310.865 L10.742,111.338 L183.538,11.574 L356.333,111.338 L356.333,310.865 L183.538,410.629 L10.742,310.865" id="Fill-10" fill="#FFFFFF" sketch:type="MSShapeGroup"></path>
            <path d="M35.742,296.432 L35.742,125.771 L183.538,40.442 L331.333,125.771 L331.333,296.432 L183.538,381.762 L35.742,296.432 L78.7734375,290.601562" id="Fill-11" fill="#263238" sketch:type="MSShapeGroup"></path>
            <path d="M183.537,46.215 L326.333,128.659 L326.333,293.545 L183.537,375.988 L40.742,293.545 L40.742,128.659 L183.537,46.215 M183.537,34.668 L30.742,122.885 L30.742,299.318 L183.537,387.535 L336.333,299.318 L336.333,122.885 L183.537,34.668" id="Fill-12" fill="#000000" sketch:type="MSShapeGroup"></path>
            <path d="M140.096,329.729 L140.096,321.726 L94.959,295.674 L94.959,267.507 L90.875,267.507 L89.513,244.087 L80.846,244.087 L80.846,182.55 L85.896,182.55 L85.746,180.034 L94.959,180.034 L94.959,152.398 L104.762,145.785 C140.756,121.484 168.036,95.864 170.46,89.423 C173.572,74.908 185.134,68.406 195.271,68.406 C208.088,68.406 224.353,74.972 269.188,153.432 L272.118,158.56 L272.118,180.034 L281.249,180.034 L281.108,182.55 L286.23,182.55 L286.23,244.087 L277.567,244.087 L276.203,267.507 L272.123,267.507 L272.123,295.673 L226.992,321.729 L226.992,329.729 L183.542,354.809 L140.096,329.729" id="Fill-13" fill="#000000" sketch:type="MSShapeGroup"></path>
            <path d="M272.645,190.55 L272.786,188.034 L264.118,188.034 L264.118,160.684 L262.242,157.401 C215.959,76.406 201.986,76.406 195.271,76.406 C188.825,76.406 180.497,80.313 178.237,91.315 C176.108,100.485 143.862,129.04 109.236,152.416 L102.959,156.651 L102.959,188.034 L94.235,188.034 L94.385,190.55 L88.846,190.55 L88.846,236.087 L97.061,236.087 L98.423,259.507 L102.959,259.507 L102.959,291.054 L148.096,317.106 L148.096,325.109 L183.542,345.571 L218.992,325.109 L218.992,317.11 L264.123,291.054 L264.123,259.507 L268.655,259.507 L270.019,236.087 L278.23,236.087 L278.23,190.55 L272.645,190.55" id="Fill-14" fill="#FFFFFF" sketch:type="MSShapeGroup"></path>
            <path d="M257.58,204.796 L257.722,202.28 L184.975,202.28 L185.598,205.626 L181.486,205.626 L182.111,202.28 L109.364,202.28 L109.513,204.796 L103.091,204.796 L103.091,221.842 L110.499,221.842 L111.864,245.261 L174.115,245.261 L179.427,216.682 L187.655,216.682 L192.964,245.261 L255.216,245.261 L256.579,221.842 L263.987,221.842 L263.987,204.796 L257.58,204.796 L257.58,204.796 Z M165.072,234.375 L122.132,234.375 L120.899,213.187 L169.013,213.187 L165.072,234.375 L165.072,234.375 Z M244.951,234.375 L202.022,234.375 L198.074,213.187 L246.186,213.187 L244.951,234.375 L244.951,234.375 Z" id="Fill-15" fill="#000000" sketch:type="MSShapeGroup"></path>
            <path d="M237.446,275.654 L204.746,294.533 L204.746,292.396 L183.542,280.159 L162.341,292.396 L162.341,294.533 L129.643,275.654 L129.643,252.254 L117.203,252.254 L117.203,282.827 L162.341,308.879 L162.341,316.886 L183.542,329.124 L204.746,316.886 L204.746,308.883 L249.878,282.827 L249.878,252.254 L237.446,252.254 L237.446,275.654" id="Fill-16" fill="#000000" sketch:type="MSShapeGroup"></path>
            <path d="M205.009,272.803 C204.296,270.206 203.586,267.603 202.872,265.003 C190.222,268.466 176.871,268.466 164.211,265.003 C163.498,267.603 162.789,270.206 162.078,272.803 C176.128,276.652 190.957,276.652 205.009,272.803" id="Fill-17" fill="#343532" sketch:type="MSShapeGroup"></path>
            <path d="M129.643,171.136 L183.551,140.008 L237.455,171.136 L237.455,194.528 L249.874,194.528 L249.874,164.466 C249.874,164.466 196.82,71.634 192.191,94.183 C187.575,116.743 117.203,164.226 117.203,164.226 L117.203,194.52 L129.626,194.52 L129.643,171.136" id="Fill-18" fill="#000000" sketch:type="MSShapeGroup"></path>
        </g>
    </g>
</svg>