<?xml version="1.0" encoding="utf-8"?>
<!-- Generator: Adobe Illustrator 18.1.1, SVG Export Plug-In . SVG Version: 6.00 Build 0)  -->
<svg version="1.1" id="Layer_1" xmlns="http://www.w3.org/2000/svg" xmlns:xlink="http://www.w3.org/1999/xlink" x="0px" y="0px"
	 width="1142px" height="841px" viewBox="271 -120 1142 841" enable-background="new 271 -120 1142 841" xml:space="preserve">
<g>
	<path fill="#7A7A7A" stroke="#7A7A7A" d="M1605.7,613.4l42.3-229.7l-39,145L1605.7,613.4z"/>
	<path fill="#707070" stroke="#707070" d="M1605.7,613.4l3.3-84.8l-113.8,95.1L1605.7,613.4z"/>
	<path fill="#7E7E7E" stroke="#7E7E7E" d="M1605.7,613.4l-110.5,10.3l-439.6,47.5L1605.7,613.4z"/>
	<path fill="#7E7E7E" stroke="#7E7E7E" d="M1495.2,623.7l113.8-95.1l-172.3-26.1L1495.2,623.7z"/>
	<path fill="#878787" stroke="#878787" d="M1495.2,623.7l-58.5-121.2l-160.1,107.7L1495.2,623.7z"/>
	<path fill="#8E8E8E" stroke="#8E8E8E" d="M1495.2,623.7l-218.6-13.5l-221,61L1495.2,623.7z"/>
	<path fill="#989898" stroke="#989898" d="M1276.6,610.3l160.1-107.7l-108.9-23.8L1276.6,610.3z"/>
	<path fill="#A5A5A5" stroke="#A5A5A5" d="M1276.6,610.3l51.2-131.5l-124.3-7.9L1276.6,610.3z"/>
	<path fill="#A2A2A2" stroke="#A2A2A2" d="M1276.6,610.3l-73.1-139.4l-20.3,138.6L1276.6,610.3z"/>
	<path fill="#9C9C9C" stroke="#9C9C9C" d="M1276.6,610.3l-93.5-0.8l-127.6,61.8L1276.6,610.3z"/>
	<path fill="#B1B1B1" stroke="#B1B1B1" d="M1183.2,609.5l20.3-138.6l-164.2,57L1183.2,609.5z"/>
	<path fill="#A9A9A9" stroke="#A9A9A9" d="M1183.2,609.5l-143.8-81.6l16.3,143.4L1183.2,609.5z"/>
	<path fill="#ACACAC" stroke="#ACACAC" d="M1055.6,671.3l-16.3-143.4L897.1,687.1L1055.6,671.3z"/>
	<path fill="#BABABA" stroke="#BABABA" d="M897.1,687.1l142.2-159.2l-217-70.5L897.1,687.1z"/>
	<path fill="#ACACAC" stroke="#ACACAC" d="M897.1,687.1l-74.8-229.7L737.8,661L897.1,687.1z"/>
	<path fill="#878787" stroke="#878787" d="M897.1,687.1L737.8,661L76.3,631.7L897.1,687.1z"/>
	<path fill="#B6B6B6" stroke="#B6B6B6" d="M737.8,661l84.5-203.6L772.8,470L737.8,661z"/>
	<path fill="#A8A8A8" stroke="#A8A8A8" d="M737.8,661L772.8,470L608.6,573.8L737.8,661z"/>
	<path fill="#8F8F8F" stroke="#8F8F8F" d="M737.8,661l-129.2-87.1l-247,43.6L737.8,661z"/>
	<path fill="#717171" stroke="#717171" d="M737.8,661l-376.3-43.6L76.3,631.7L737.8,661z"/>
	<path fill="#AEAEAE" stroke="#AEAEAE" d="M608.6,573.8L772.8,470L576.9,478L608.6,573.8z"/>
	<path fill="#9D9D9D" stroke="#9D9D9D" d="M608.6,573.8L576.9,478l-128.4,59.4L608.6,573.8z"/>
	<path fill="#8A8A8A" stroke="#8A8A8A" d="M608.6,573.8l-160.1-36.4l-87,80L608.6,573.8z"/>
	<path fill="#828282" stroke="#828282" d="M361.6,617.4l87-80L282.8,432L361.6,617.4z"/>
	<path fill="#747474" stroke="#747474" d="M361.6,617.4L282.8,432l-17.9,179L361.6,617.4z"/>
	<path fill="#5C5C5C" stroke="#5C5C5C" d="M361.6,617.4l-96.7-6.3L76.3,631.7L361.6,617.4z"/>
	<path fill="#6B6B6B" stroke="#6B6B6B" d="M264.9,611.1l17.9-179L47.1,506.5L264.9,611.1z"/>
	<path fill="#575757" stroke="#575757" d="M264.9,611.1L47.1,506.5l29.3,125.2L264.9,611.1z"/>
	<path fill="#888888" stroke="#888888" d="M1609,528.7l39-145l-211.3,118.8L1609,528.7z"/>
	<path fill="#A5A5A5" stroke="#A5A5A5" d="M1436.7,502.5L1648,383.7l-217-72.1L1436.7,502.5z"/>
	<path fill="#A8A8A8" stroke="#A8A8A8" d="M1436.7,502.5l-5.7-190.9l-103.2,167.2L1436.7,502.5z"/>
	<path fill="#BEBEBE" stroke="#BEBEBE" d="M1327.8,478.8L1431,311.6l-42.3-35.7L1327.8,478.8z"/>
	<path fill="#C6C6C6" stroke="#C6C6C6" d="M1327.8,478.8l60.9-202.8l-204,93.5L1327.8,478.8z"/>
	<path fill="#BDBDBD" stroke="#BDBDBD" d="M1327.8,478.8l-143-109.3l18.7,101.4L1327.8,478.8z"/>
	<path fill="#C2C2C2" stroke="#C2C2C2" d="M1203.5,470.8l-18.7-101.4l-145.5,158.4L1203.5,470.8z"/>
	<path fill="#DCDCDC" stroke="#DCDCDC" d="M1039.3,527.9l145.5-158.4l-175.5-95.1L1039.3,527.9z"/>
	<path fill="#E6E6E6" stroke="#E6E6E6" d="M1039.3,527.9l-30.1-253.5l-169,81.6L1039.3,527.9z"/>
	<path fill="#D2D2D2" stroke="#D2D2D2" d="M1039.3,527.9L840.2,356l-17.9,101.4L1039.3,527.9z"/>
	<path fill="#D2D2D2" stroke="#D2D2D2" d="M822.3,457.4L840.2,356L772.8,470L822.3,457.4z"/>
	<path fill="#D5D5D5" stroke="#D5D5D5" d="M772.8,470L840.2,356l-163.3,21.4L772.8,470z"/>
	<path fill="#C0C0C0" stroke="#C0C0C0" d="M772.8,470l-95.9-92.7L576.9,478L772.8,470z"/>
	<path fill="#C6C6C6" stroke="#C6C6C6" d="M576.9,478l100-100.6l-148.7-57.8L576.9,478z"/>
	<path fill="#BDBDBD" stroke="#BDBDBD" d="M576.9,478l-48.8-158.4l-82.9,57L576.9,478z"/>
	<path fill="#A4A4A4" stroke="#A4A4A4" d="M576.9,478L445.3,376.6l3.3,160.8L576.9,478z"/>
	<path fill="#999999" stroke="#999999" d="M448.5,537.4l-3.3-160.8L282.8,432L448.5,537.4z"/>
	<path fill="#A0A0A0" stroke="#A0A0A0" d="M282.8,432l162.5-55.5l-249.5-63.4L282.8,432z"/>
	<path fill="#939393" stroke="#939393" d="M282.8,432l-87-118.8l-77.2,25.4L282.8,432z"/>
	<path fill="#7D7D7D" stroke="#7D7D7D" d="M282.8,432l-164.2-93.5l-71.5,168L282.8,432z"/>
	<path fill="#888888" stroke="#888888" d="M47.1,506.5l71.5-168l2.4-106.2L47.1,506.5z"/>
	<path fill="#959595" stroke="#959595" d="M47.1,506.5L121,232.4l14.6-191.7L47.1,506.5z"/>
	<path fill="#939393" stroke="#939393" d="M47.1,506.5l88.6-465.8l-6.5-183.8L47.1,506.5z"/>
	<path fill="#868686" stroke="#868686" d="M47.1,506.5l82.1-649.6l-13-116.5L47.1,506.5z"/>
	<path fill="#9A9A9A" stroke="#9A9A9A" d="M1648,383.7l45.5-680.5l-45.5,328V383.7z"/>
	<path fill="#ADADAD" stroke="#ADADAD" d="M1648,383.7V31.1l-52,149.7L1648,383.7z"/>
	<path fill="#B3B3B3" stroke="#B3B3B3" d="M1648,383.7l-52-202.8l-165,130.7L1648,383.7z"/>
	<path fill="#BEBEBE" stroke="#BEBEBE" d="M1431,311.6l165-130.7l-169,10.3L1431,311.6z"/>
	<path fill="#C5C5C5" stroke="#C5C5C5" d="M1431,311.6l-4.1-120.4l-38.2,84.8L1431,311.6z"/>
	<path fill="#CDCDCD" stroke="#CDCDCD" d="M1388.7,275.9l38.2-84.8l-143,2.4L1388.7,275.9z"/>
	<path fill="#D7D7D7" stroke="#D7D7D7" d="M1388.7,275.9l-104.8-82.4l-99.1,175.9L1388.7,275.9z"/>
	<path fill="#E6E6E6" stroke="#E6E6E6" d="M1184.8,369.4l99.1-175.9l-250.3,23.8L1184.8,369.4z"/>
	<path fill="#EEEEEE" stroke="#EEEEEE" d="M1184.8,369.4l-151.2-152.1l-24.4,57L1184.8,369.4z"/>
	<path fill="#F9F9F9" stroke="#F9F9F9" d="M1009.2,274.4l24.4-57l-212.9,11.9L1009.2,274.4z"/>
	<path fill="#F4F4F4" stroke="#F4F4F4" d="M1009.2,274.4l-188.5-45.2L840.2,356L1009.2,274.4z"/>
	<path fill="#EFEFEF" stroke="#EFEFEF" d="M840.2,356l-19.5-126.8l-69.9-11.1L840.2,356z"/>
	<path fill="#E7E7E7" stroke="#E7E7E7" d="M840.2,356l-89.4-137.8l-73.9,159.2L840.2,356z"/>
	<path fill="#DFDFDF" stroke="#DFDFDF" d="M676.9,377.3l73.9-159.2L528.2,319.5L676.9,377.3z"/>
	<path fill="#DEDEDE" stroke="#DEDEDE" d="M528.2,319.5l222.7-101.4l-173.1-84L528.2,319.5z"/>
	<path fill="#CCCCCC" stroke="#CCCCCC" d="M528.2,319.5l49.6-185.4l-230,41.2L528.2,319.5z"/>
	<path fill="#C4C4C4" stroke="#C4C4C4" d="M528.2,319.5L347.8,175.3l97.5,201.2L528.2,319.5z"/>
	<path fill="#B3B3B3" stroke="#B3B3B3" d="M445.3,376.6l-97.5-201.2l-152,137.8L445.3,376.6z"/>
	<path fill="#A9A9A9" stroke="#A9A9A9" d="M195.8,313.2l152-137.8l-122.7,27.7L195.8,313.2z"/>
	<path fill="#9E9E9E" stroke="#9E9E9E" d="M195.8,313.2l29.3-110.1l-104,29.3L195.8,313.2z"/>
	<path fill="#989898" stroke="#989898" d="M195.8,313.2L121,232.4l-2.4,106.2L195.8,313.2z"/>
	<path fill="#A9A9A9" stroke="#A9A9A9" d="M1596,180.9l52-149.7l-107.3,3.2L1596,180.9z"/>
	<path fill="#B7B7B7" stroke="#B7B7B7" d="M1596,180.9l-55.3-146.6l-113.8,156.9L1596,180.9z"/>
	<path fill="#BFBFBF" stroke="#BFBFBF" d="M1426.9,191.2l113.8-156.9l-238.1,49.1L1426.9,191.2z"/>
	<path fill="#CFCFCF" stroke="#CFCFCF" d="M1426.9,191.2L1302.6,83.4l-18.7,110.1L1426.9,191.2z"/>
	<path fill="#D8D8D8" stroke="#D8D8D8" d="M1283.9,193.6l18.7-110.1l-73.9,45.2L1283.9,193.6z"/>
	<path fill="#E5E5E5" stroke="#E5E5E5" d="M1283.9,193.6l-55.3-65l-195,88.7L1283.9,193.6z"/>
	<path fill="#D6D6D6" stroke="#D6D6D6" d="M1228.7,128.6l73.9-45.2l-73.1-29.3L1228.7,128.6z"/>
	<path fill="#E0E0E0" stroke="#E0E0E0" d="M1228.7,128.6l0.8-74.5l-214.5-17.4L1228.7,128.6z"/>
	<path fill="#ECECEC" stroke="#ECECEC" d="M1228.7,128.6l-213.7-91.9l18.7,180.6L1228.7,128.6z"/>
	<path fill="#F8F8F8" stroke="#F8F8F8" d="M1033.6,217.3l-18.7-180.6L820.7,229.2L1033.6,217.3z"/>
	<path fill="#EEEEEE" stroke="#EEEEEE" d="M820.7,229.2l194.2-192.5L839.4-30.7L820.7,229.2z"/>
	<path fill="#E8E8E8" stroke="#E8E8E8" d="M820.7,229.2l18.7-259.9l-148.7,107L820.7,229.2z"/>
	<path fill="#EBEBEB" stroke="#EBEBEB" d="M820.7,229.2l-130-152.9l60.1,141.8L820.7,229.2z"/>
	<path fill="#E1E1E1" stroke="#E1E1E1" d="M750.8,218.1L690.7,76.3l-113,57.8L750.8,218.1z"/>
	<path fill="#D5D5D5" stroke="#D5D5D5" d="M577.7,134.1l113-57.8l-139-25.4L577.7,134.1z"/>
	<path fill="#CACACA" stroke="#CACACA" d="M577.7,134.1l-26-83.2l-204,124.4L577.7,134.1z"/>
	<path fill="#BBBBBB" stroke="#BBBBBB" d="M347.8,175.3l204-124.4L380.3-17.2L347.8,175.3z"/>
	<path fill="#A9A9A9" stroke="#A9A9A9" d="M347.8,175.3l32.5-192.5L277.1-0.5L347.8,175.3z"/>
	<path fill="#AAAAAA" stroke="#AAAAAA" d="M347.8,175.3L277.1-0.5l-52,203.6L347.8,175.3z"/>
	<path fill="#9B9B9B" stroke="#9B9B9B" d="M225.1,203.1l52-203.6L135.7,40.7L225.1,203.1z"/>
	<path fill="#9B9B9B" stroke="#9B9B9B" d="M225.1,203.1L135.7,40.7L121,232.4L225.1,203.1z"/>
	<path fill="#616161" stroke="#616161" d="M1648,31.1l45.5-328l-34.9,129.1L1648,31.1z"/>
	<path fill="#8C8C8C" stroke="#8C8C8C" d="M1648,31.1l10.6-198.8l-117.8,202L1648,31.1z"/>
	<path fill="#878787" stroke="#878787" d="M1540.7,34.3l117.8-202l-212.1,80.8L1540.7,34.3z"/>
	<path fill="#AFAFAF" stroke="#AFAFAF" d="M1540.7,34.3l-94.3-121.2L1302.6,83.4L1540.7,34.3z"/>
	<path fill="#A7A7A7" stroke="#A7A7A7" d="M1302.6,83.4l143.8-170.3L1314-148.7L1302.6,83.4z"/>
	<path fill="#C0C0C0" stroke="#C0C0C0" d="M1302.6,83.4l11.4-232.1l-84.5,202.8L1302.6,83.4z"/>
	<path fill="#B3B3B3" stroke="#B3B3B3" d="M1229.5,54.1l84.5-202.8l-121.9,57L1229.5,54.1z"/>
	<path fill="#D1D1D1" stroke="#D1D1D1" d="M1229.5,54.1l-37.4-145.8L1014.9,36.7L1229.5,54.1z"/>
	<path fill="#C5C5C5" stroke="#C5C5C5" d="M1014.9,36.7l177.2-128.3l-223.5-53.9L1014.9,36.7z"/>
	<path fill="#CFCFCF" stroke="#CFCFCF" d="M1014.9,36.7l-46.3-182.2l-100,75.3L1014.9,36.7z"/>
	<path fill="#D9D9D9" stroke="#D9D9D9" d="M1014.9,36.7l-146.3-107l-29.3,39.6L1014.9,36.7z"/>
	<path fill="#BFBFBF" stroke="#BFBFBF" d="M839.4-30.7l29.3-39.6l-192.6-62.6L839.4-30.7z"/>
	<path fill="#C9C9C9" stroke="#C9C9C9" d="M839.4-30.7L676.1-132.8l14.6,209.1L839.4-30.7z"/>
	<path fill="#C7C7C7" stroke="#C7C7C7" d="M690.7,76.3l-14.6-209.1L551.7,50.9L690.7,76.3z"/>
	<path fill="#A9A9A9" stroke="#A9A9A9" d="M551.7,50.9l124.3-183.8l-80.5-34.9L551.7,50.9z"/>
	<path fill="#ABABAB" stroke="#ABABAB" d="M551.7,50.9l43.9-218.7L380.3-17.2L551.7,50.9z"/>
	<path fill="#919191" stroke="#919191" d="M380.3-17.2l215.3-150.5L351.8-85.3L380.3-17.2z"/>
	<path fill="#939393" stroke="#939393" d="M380.3-17.2l-28.4-68.1L277.1-0.5L380.3-17.2z"/>
	<path fill="#7E7E7E" stroke="#7E7E7E" d="M277.1-0.5l74.8-84.8l-69.1-80.8L277.1-0.5z"/>
	<path fill="#6B6B6B" stroke="#6B6B6B" d="M277.1-0.5l5.7-165.6l-153.6,23L277.1-0.5z"/>
	<path fill="#7C7C7C" stroke="#7C7C7C" d="M277.1-0.5L129.2-143.1l6.5,183.8L277.1-0.5z"/>
	<path fill="#454545" stroke="#454545" d="M1658.5-167.7l34.9-129.1l-165.8-19.8L1658.5-167.7z"/>
	<path fill="#606060" stroke="#606060" d="M1658.5-167.7l-130.8-148.9l-81.3,229.7L1658.5-167.7z"/>
	<path fill="#636363" stroke="#636363" d="M1446.4-86.9l81.3-229.7l-205.6,18.2L1446.4-86.9z"/>
	<path fill="#7B7B7B" stroke="#7B7B7B" d="M1446.4-86.9l-124.3-211.5l-8.1,149.7L1446.4-86.9z"/>
	<path fill="#747474" stroke="#747474" d="M1314-148.7l8.1-149.7l-126.8-9.5L1314-148.7z"/>
	<path fill="#8B8B8B" stroke="#8B8B8B" d="M1314-148.7l-118.6-159.2l-3.3,216.3L1314-148.7z"/>
	<path fill="#8C8C8C" stroke="#8C8C8C" d="M1192.1-91.7l3.3-216.3l-182,29.3L1192.1-91.7z"/>
	<path fill="#A0A0A0" stroke="#A0A0A0" d="M1192.1-91.7l-178.8-187l-44.7,133.1L1192.1-91.7z"/>
	<path fill="#979797" stroke="#979797" d="M968.6-145.5l44.7-133.1l-137.3-19L968.6-145.5z"/>
	<path fill="#A5A5A5" stroke="#A5A5A5" d="M968.6-145.5L876-297.6l-7.3,227.4L968.6-145.5z"/>
	<path fill="#959595" stroke="#959595" d="M868.7-70.3l7.3-227.4l-158.5,27.7L868.7-70.3z"/>
	<path fill="#9F9F9F" stroke="#9F9F9F" d="M868.7-70.3L717.5-269.9l-41.4,137.1L868.7-70.3z"/>
	<path fill="#8C8C8C" stroke="#8C8C8C" d="M676.1-132.8l41.4-137.1L595.6-167.7L676.1-132.8z"/>
	<path fill="#797979" stroke="#797979" d="M595.6-167.7l121.9-102.2L533-298.4L595.6-167.7z"/>
	<path fill="#696969" stroke="#696969" d="M595.6-167.7L533-298.4L387.6-296L595.6-167.7z"/>
	<path fill="#727272" stroke="#727272" d="M595.6-167.7L387.6-296L351.8-85.3L595.6-167.7z"/>
	<path fill="#616161" stroke="#616161" d="M351.8-85.3L387.6-296L282.8-166.1L351.8-85.3z"/>
	<path fill="#4C4C4C" stroke="#4C4C4C" d="M282.8-166.1L387.6-296l-176.3,40.4L282.8-166.1z"/>
	<path fill="#4C4C4C" stroke="#4C4C4C" d="M282.8-166.1l-71.5-89.5l-82.1,112.5L282.8-166.1z"/>
	<path fill="#3E3E3E" stroke="#3E3E3E" d="M129.2-143.1l82.1-112.5l-95.1-4L129.2-143.1z"/>
	<path fill="#828282" stroke="#828282" d="M1527.7-316.6L387.6-296l145.5-2.4L1527.7-316.6z"/>
	<path fill="#808080" stroke="#808080" d="M1527.7-316.6L533-298.4l662.3-9.5L1527.7-316.6z"/>
	<path fill="#606060" stroke="#606060" d="M1527.7-316.6l-332.4,8.7l126.8,9.5L1527.7-316.6z"/>
	<path fill="#858585" stroke="#858585" d="M1195.3-307.9L533-298.4l342.9,0.8L1195.3-307.9z"/>
	<path fill="#858585" stroke="#858585" d="M1195.3-307.9L876-297.6l137.3,19L1195.3-307.9z"/>
	<path fill="#787878" stroke="#787878" d="M876-297.6L533-298.4l184.5,28.5L876-297.6z"/>
	<path fill="#3C3C3C" stroke="#3C3C3C" d="M387.6-296l-271.4,36.4l95.1,4L387.6-296z"/>
</g>
<linearGradient id="SVGID_1_" gradientUnits="userSpaceOnUse" x1="842" y1="693" x2="842" y2="-106.8125">
	<stop  offset="0.129" style="stop-color:#FFFFFF"/>
	<stop  offset="1" style="stop-color:#FFFFFF;stop-opacity:0.1"/>
</linearGradient>
<rect x="271" y="-120" fill="url(#SVGID_1_)" width="1142" height="834.5"/>
<radialGradient id="SVGID_2_" cx="838" cy="427.75" r="559.25" gradientUnits="userSpaceOnUse">
	<stop  offset="0.1814" style="stop-color:#FFFFFF;stop-opacity:0.4"/>
	<stop  offset="1" style="stop-color:#FFFFFF;stop-opacity:0"/>
</radialGradient>
<circle fill="url(#SVGID_2_)" cx="838" cy="427.8" r="559.2"/>
</svg>
